<?xml version="1.0" encoding="UTF-8"?>
<svg version="1.1" xmlns="http://www.w3.org/2000/svg" width="72" height="72">
<path d="M0 0 C8.00635373 6.61394439 14.08988042 14.58067489 15.10546875 25.09765625 C15.6376895 35.70872737 13.42332509 43.73705482 7.62890625 52.76953125 C-1.92819532 61.70334359 -11.39227109 65.0847125 -24.2578125 64.7734375 C-29.46585011 64.48007879 -33.71195897 63.01064247 -38.24609375 60.45703125 C-38.87773438 60.11800781 -39.509375 59.77898437 -40.16015625 59.4296875 C-47.27749042 55.02446525 -52.55088387 46.98274247 -54.80859375 38.99609375 C-56.4506194 29.46648062 -56.0302533 19.99925714 -51.24609375 11.45703125 C-39.25002589 -4.99337222 -18.07063854 -12.413743 0 0 Z " fill="#1F3C1A" transform="translate(56.24609375,7.54296875)"/>
<path d="M0 0 C8.00635373 6.61394439 14.08988042 14.58067489 15.10546875 25.09765625 C15.6376895 35.70872737 13.42332509 43.73705482 7.62890625 52.76953125 C-1.92819532 61.70334359 -11.39227109 65.0847125 -24.2578125 64.7734375 C-29.46585011 64.48007879 -33.71195897 63.01064247 -38.24609375 60.45703125 C-38.87773438 60.11800781 -39.509375 59.77898437 -40.16015625 59.4296875 C-47.27749042 55.02446525 -52.55088387 46.98274247 -54.80859375 38.99609375 C-56.4506194 29.46648062 -56.0302533 19.99925714 -51.24609375 11.45703125 C-39.25002589 -4.99337222 -18.07063854 -12.413743 0 0 Z M-27.24609375 -4.54296875 C-27.90609375 -3.22296875 -28.56609375 -1.90296875 -29.24609375 -0.54296875 C-31.33984375 0.22265625 -31.33984375 0.22265625 -33.74609375 0.70703125 C-36.1829269 1.32384873 -36.1829269 1.32384873 -38.24609375 2.45703125 C-39.28073644 4.52631664 -39.59900514 6.30995343 -39.94140625 8.58984375 C-40.24609375 10.45703125 -40.24609375 10.45703125 -41.49609375 12.33203125 C-43.24609375 13.45703125 -43.24609375 13.45703125 -46.30859375 14.08203125 C-49.38896997 15.10500896 -49.38896997 15.10500896 -50.0078125 17.51171875 C-50.32893415 19.11989597 -50.60264327 20.73839436 -50.82421875 22.36328125 C-51.24609375 24.45703125 -51.24609375 24.45703125 -53.24609375 26.45703125 C-53.56473064 28.56292202 -53.56473064 28.56292202 -53.49609375 30.89453125 C-53.50125 31.67699219 -53.50640625 32.45945313 -53.51171875 33.265625 C-53.37786206 35.74747232 -53.37786206 35.74747232 -51.24609375 38.45703125 C-50.91609375 37.46703125 -50.58609375 36.47703125 -50.24609375 35.45703125 C-48.3984375 34.7265625 -48.3984375 34.7265625 -46.18359375 34.26953125 C-45.45011719 34.11097656 -44.71664062 33.95242187 -43.9609375 33.7890625 C-43.39503906 33.67949219 -42.82914063 33.56992187 -42.24609375 33.45703125 C-41.81296875 31.56984375 -41.81296875 31.56984375 -41.37109375 29.64453125 C-40.67305836 26.60309135 -40.0416279 25.15033247 -38.24609375 22.45703125 C-37.25609375 22.12703125 -36.26609375 21.79703125 -35.24609375 21.45703125 C-35.24609375 24.75703125 -35.24609375 28.05703125 -35.24609375 31.45703125 C-36.56609375 32.11703125 -37.88609375 32.77703125 -39.24609375 33.45703125 C-40.97829303 35.18923053 -40.45901136 37.47729933 -40.49609375 39.83203125 C-40.521875 40.80914062 -40.54765625 41.78625 -40.57421875 42.79296875 C-40.46757621 45.48236309 -40.46757621 45.48236309 -38.85546875 47.30859375 C-37.30428 48.6506527 -37.30428 48.6506527 -35.24609375 48.45703125 C-34.91609375 49.44703125 -34.58609375 50.43703125 -34.24609375 51.45703125 C-33.25609375 51.45703125 -32.26609375 51.45703125 -31.24609375 51.45703125 C-30.58609375 52.77703125 -29.92609375 54.09703125 -29.24609375 55.45703125 C-27.26609375 55.45703125 -25.28609375 55.45703125 -23.24609375 55.45703125 C-23.24609375 54.79703125 -23.24609375 54.13703125 -23.24609375 53.45703125 C-21.92609375 53.78703125 -20.60609375 54.11703125 -19.24609375 54.45703125 C-21.88609375 55.44703125 -24.52609375 56.43703125 -27.24609375 57.45703125 C-27.24609375 58.77703125 -27.24609375 60.09703125 -27.24609375 61.45703125 C-24.82912503 61.51114249 -22.41337588 61.55075403 -19.99609375 61.58203125 C-18.97322266 61.60716797 -18.97322266 61.60716797 -17.9296875 61.6328125 C-12.75185535 61.6975076 -12.75185535 61.6975076 -8.24609375 59.45703125 C-7.23079834 57.1303126 -6.23121177 54.79668655 -5.24609375 52.45703125 C-2.69758752 49.9907349 -0.63995554 49.23641496 2.75390625 48.45703125 C3.00140625 47.21953125 3.24890625 45.98203125 3.50390625 44.70703125 C4.45211454 40.93423064 5.5364223 38.82282828 8.75390625 36.45703125 C10.07729816 36.08619066 11.41037531 35.74653687 12.75390625 35.45703125 C12.80801749 33.04006253 12.84762903 30.62431338 12.87890625 28.20703125 C12.90404297 27.18416016 12.90404297 27.18416016 12.9296875 26.140625 C12.96604107 22.39620775 12.83334974 19.63350398 10.75390625 16.45703125 C9.43390625 16.45703125 8.11390625 16.45703125 6.75390625 16.45703125 C6.09390625 20.08703125 5.43390625 23.71703125 4.75390625 27.45703125 C1.45390625 28.44703125 -1.84609375 29.43703125 -5.24609375 30.45703125 C-5.11589844 29.36003906 -4.98570313 28.26304688 -4.8515625 27.1328125 C-4.71082468 25.67852165 -4.57158021 24.22408574 -4.43359375 22.76953125 C-4.34400391 22.04830078 -4.25441406 21.32707031 -4.16210938 20.58398438 C-3.80525203 16.47073392 -3.98723164 14.78935422 -6.55859375 11.48828125 C-9.27452339 9.43554373 -10.89245807 8.74448574 -14.24609375 8.45703125 C-14.74109375 6.97203125 -14.74109375 6.97203125 -15.24609375 5.45703125 C-16.56609375 5.45703125 -17.88609375 5.45703125 -19.24609375 5.45703125 C-18.29675476 2.10270016 -17.3486054 -1.2354338 -16.24609375 -4.54296875 C-19.87609375 -4.54296875 -23.50609375 -4.54296875 -27.24609375 -4.54296875 Z " fill="#020302" transform="translate(56.24609375,7.54296875)"/>
<path d="M0 0 C0.90105469 0.02707031 1.80210938 0.05414063 2.73046875 0.08203125 C3.76107422 0.13423828 3.76107422 0.13423828 4.8125 0.1875 C5.1425 1.1775 5.4725 2.1675 5.8125 3.1875 C6.534375 3.249375 7.25625 3.31125 8 3.375 C11.86619745 4.49190148 13.34293748 6.01711568 15.8125 9.1875 C16.01738471 12.2191998 15.99181869 14.54697763 15.625 17.5 C15.55474609 18.24056641 15.48449219 18.98113281 15.41210938 19.74414062 C15.23627647 21.5610806 15.02763903 23.37479394 14.8125 25.1875 C15.8025 25.5175 16.7925 25.8475 17.8125 26.1875 C19.25457941 29.07165883 18.90644887 31.60471528 18.875 34.8125 C18.86597656 36.00101563 18.85695313 37.18953125 18.84765625 38.4140625 C18.83605469 39.32929687 18.82445313 40.24453125 18.8125 41.1875 C17.4925 41.1875 16.1725 41.1875 14.8125 41.1875 C14.8125 40.1975 14.8125 39.2075 14.8125 38.1875 C14.1525 38.1875 13.4925 38.1875 12.8125 38.1875 C12.3175 35.7125 12.3175 35.7125 11.8125 33.1875 C11.8125 33.950625 11.8125 34.71375 11.8125 35.5 C11.8125 37.39583333 11.8125 39.29166667 11.8125 41.1875 C6.11050334 44.16245478 1.23107211 45.00958313 -5.1875 44.1875 C-8.8125 42.6875 -8.8125 42.6875 -11.1875 41.1875 C-10.5275 37.8875 -9.8675 34.5875 -9.1875 31.1875 C-7.2075 31.1875 -5.2275 31.1875 -3.1875 31.1875 C-3.1875 30.5275 -3.1875 29.8675 -3.1875 29.1875 C-4.8375 28.8575 -6.4875 28.5275 -8.1875 28.1875 C-8.1875 27.5275 -8.1875 26.8675 -8.1875 26.1875 C-9.1775 26.1875 -10.1675 26.1875 -11.1875 26.1875 C-12.18859515 22.87679162 -12.29106134 19.88665231 -12.25 16.4375 C-12.24097656 15.45265625 -12.23195313 14.4678125 -12.22265625 13.453125 C-12.21105469 12.70546875 -12.19945313 11.9578125 -12.1875 11.1875 C-11.1975 11.6825 -11.1975 11.6825 -10.1875 12.1875 C-10.1875 13.1775 -10.1875 14.1675 -10.1875 15.1875 C-9.383125 15.166875 -8.57875 15.14625 -7.75 15.125 C-5.1875 15.1875 -5.1875 15.1875 -4.1875 16.1875 C-1.51691149 16.32865161 1.13682238 16.22997107 3.8125 16.1875 C4.1425 15.1975 4.4725 14.2075 4.8125 13.1875 C4.12542969 13.22230469 3.43835937 13.25710937 2.73046875 13.29296875 C1.82941406 13.32003906 0.92835937 13.34710938 0 13.375 C-0.89332031 13.40980469 -1.78664063 13.44460937 -2.70703125 13.48046875 C-5.1875 13.1875 -5.1875 13.1875 -7.01171875 11.92578125 C-8.1875 10.1875 -8.1875 10.1875 -8.1875 6.1875 C-8.8475 5.8575 -9.5075 5.5275 -10.1875 5.1875 C-9.5275 5.1875 -8.8675 5.1875 -8.1875 5.1875 C-8.1875 4.5275 -8.1875 3.8675 -8.1875 3.1875 C-5.81161515 -0.07243502 -3.8998184 -0.15194098 0 0 Z " fill="#264824" transform="translate(36.1875,12.8125)"/>
<path d="M0 0 C3.63 0 7.26 0 11 0 C10.34 1.32 9.68 2.64 9 4 C8.61709538 5.99110401 8.27395385 7.99100513 8 10 C6.02 10 4.04 10 2 10 C1.67 10.99 1.34 11.98 1 13 C0.34 13 -0.32 13 -1 13 C-1 13.66 -1 14.32 -1 15 C-1.66 15 -2.32 15 -3 15 C-3 15.99 -3 16.98 -3 18 C-3.61875 18.45375 -4.2375 18.9075 -4.875 19.375 C-7.46783669 21.35775747 -7.82972078 23.0011595 -9 26 C-9.99 26.8971875 -9.99 26.8971875 -11 27.8125 C-13.87196245 30.95370893 -14.1710656 33.85532802 -15 38 C-15.56589844 38.10957031 -16.13179687 38.21914063 -16.71484375 38.33203125 C-17.44832031 38.49058594 -18.18179687 38.64914063 -18.9375 38.8125 C-19.66839844 38.96332031 -20.39929688 39.11414062 -21.15234375 39.26953125 C-21.76207031 39.51058594 -22.37179688 39.75164063 -23 40 C-23.33 40.99 -23.66 41.98 -24 43 C-26.67587151 38.98619273 -26.58653848 35.71818456 -26 31 C-24.5625 28.875 -24.5625 28.875 -23 27 C-22.27518916 23.34725531 -22.27518916 23.34725531 -22 20 C-21.44570313 19.82984375 -20.89140625 19.6596875 -20.3203125 19.484375 C-15.9562232 18.15027633 -15.9562232 18.15027633 -12.625 15.25 C-12.41875 14.5075 -12.2125 13.765 -12 13 C-11.62875 11.7625 -11.2575 10.525 -10.875 9.25 C-10.58625 8.1775 -10.2975 7.105 -10 6 C-7.98177083 5.609375 -5.96354167 5.21875 -3.9453125 4.828125 C-1.47178598 4.02322581 -1.47178598 4.02322581 0 0 Z " fill="#16D228" transform="translate(29,3)"/>
<path d="M0 0 C0.66 0 1.32 0 2 0 C2.309375 0.804375 2.61875 1.60875 2.9375 2.4375 C3.76335345 4.89080405 3.76335345 4.89080405 5 6 C6.85287502 6.07226502 8.70833878 6.0838122 10.5625 6.0625 C11.57441406 6.05347656 12.58632813 6.04445313 13.62890625 6.03515625 C14.41136719 6.02355469 15.19382812 6.01195312 16 6 C15.125 9.875 15.125 9.875 14 11 C8.8808507 11.26029573 4.7449066 11.19885916 0 9 C-0.33 8.01 -0.66 7.02 -1 6 C-1 10.62 -1 15.24 -1 20 C-0.01 20 0.98 20 2 20 C2.33 20.66 2.66 21.32 3 22 C5.02463255 22.65213292 5.02463255 22.65213292 7 23 C7 23.66 7 24.32 7 25 C5.02 25 3.04 25 1 25 C1.020625 26.093125 1.04125 27.18625 1.0625 28.3125 C1 32 1 32 0 35 C5.98373349 38.19132453 13.57983555 37.71204385 20 36 C20 36.66 20 37.32 20 38 C14.62796191 40.86508698 8.3679468 40.93825249 2.57421875 39.32421875 C0.6891372 38.6177317 -1.16038673 37.8176059 -3 37 C-3.33 37.99 -3.66 38.98 -4 40 C-4.495 38.515 -4.495 38.515 -5 37 C-6.96672915 35.8499169 -6.96672915 35.8499169 -9 35 C-10.73219928 33.26780072 -10.21291761 30.97973192 -10.25 28.625 C-10.28867188 27.15933594 -10.28867188 27.15933594 -10.328125 25.6640625 C-10 23 -10 23 -8.609375 21.1484375 C-7 20 -7 20 -5 20 C-5.09539063 19.26394531 -5.19078125 18.52789062 -5.2890625 17.76953125 C-5.39992188 16.79371094 -5.51078125 15.81789063 -5.625 14.8125 C-5.74101562 13.84957031 -5.85703125 12.88664062 -5.9765625 11.89453125 C-6.00229114 8.71704396 -5.46151332 6.80452557 -4 4 C-1.875 2.6875 -1.875 2.6875 0 2 C0 1.34 0 0.68 0 0 Z " fill="#344F44" transform="translate(26,19)"/>
<path d="M0 0 C11.9018197 -0.62549709 21.56783393 0.34680116 30.7578125 8.4375 C32.20258354 10.25482206 32.59940494 11.7332182 33 14 C32.21625 14.268125 31.4325 14.53625 30.625 14.8125 C27.71885077 15.84814432 27.71885077 15.84814432 26 19 C25.60612212 21.32387947 25.26513915 23.65793749 25 26 C24.34 26 23.68 26 23 26 C22.5359375 24.3603125 22.5359375 24.3603125 22.0625 22.6875 C21.41662103 20.44592006 20.7376883 18.2130649 20 16 C17.67793475 15.29508733 15.34406932 14.62787571 13 14 C12.67 13.34 12.34 12.68 12 12 C9.97536745 11.34786708 9.97536745 11.34786708 8 11 C7.75 5.375 7.75 5.375 10 2 C6.7 1.67 3.4 1.34 0 1 C0 0.67 0 0.34 0 0 Z " fill="#0EC420" transform="translate(29,2)"/>
<path d="M0 0 C0.99 0.495 0.99 0.495 2 1 C2 1.99 2 2.98 2 4 C2.804375 3.979375 3.60875 3.95875 4.4375 3.9375 C7 4 7 4 8 5 C12.03083011 5.32460261 12.03083011 5.32460261 16 5 C16.66 4.01 17.32 3.02 18 2 C20.5 1.625 20.5 1.625 23 2 C25.4294516 5.6441774 25.16179575 7.71241272 25 12 C24.34 12 23.68 12 23 12 C23 12.99 23 13.98 23 15 C22.01 15 21.02 15 20 15 C20 15.66 20 16.32 20 17 C18.02 17 16.04 17 14 17 C14 17.66 14 18.32 14 19 C12.68 19 11.36 19 10 19 C9.67 18.34 9.34 17.68 9 17 C7.11235097 16.31527335 7.11235097 16.31527335 4.9375 15.875 C3.83728516 15.62363281 3.83728516 15.62363281 2.71484375 15.3671875 C2.14894531 15.24601562 1.58304688 15.12484375 1 15 C-0.00109515 11.68929162 -0.10356134 8.69915231 -0.0625 5.25 C-0.05347656 4.26515625 -0.04445313 3.2803125 -0.03515625 2.265625 C-0.02355469 1.51796875 -0.01195313 0.7703125 0 0 Z " fill="#8085AA" transform="translate(24,24)"/>
<path d="M0 0 C0.99 0 1.98 0 3 0 C3.10824843 1.6026782 3.18570645 3.20745748 3.25 4.8125 C3.29640625 5.70582031 3.3428125 6.59914063 3.390625 7.51953125 C2.87548019 10.79070082 1.56916012 11.07685693 -1 13 C-1.94431066 17.20706681 -2.19100876 22.06718648 0.12890625 25.83203125 C1.60583737 27.36070918 1.60583737 27.36070918 4 29 C3.01 32.465 3.01 32.465 2 36 C-4.65462184 32.387491 -10.54735195 26.84951732 -13.25 19.6875 C-13.4975 18.800625 -13.745 17.91375 -14 17 C-10.92000054 13.32769295 -8.7517398 12.43197635 -4 12 C-4.12375 10.700625 -4.12375 10.700625 -4.25 9.375 C-3.9397248 5.18628475 -2.6653235 3.1983882 0 0 Z " fill="#0A0E0A" transform="translate(18,29)"/>
<path d="M0 0 C1.98 0.66 3.96 1.32 6 2 C6 2.66 6 3.32 6 4 C7.32 4 8.64 4 10 4 C10 3.34 10 2.68 10 2 C11.65 2 13.3 2 15 2 C13.68 2.33 12.36 2.66 11 3 C11.33 3.99 11.66 4.98 12 6 C13.32 6 14.64 6 16 6 C16 7.32 16 8.64 16 10 C14.35 10 12.7 10 11 10 C11 11.32 11 12.64 11 14 C11.66 14 12.32 14 13 14 C13 13.01 13 12.02 13 11 C14.65 11 16.3 11 18 11 C18 12.65 18 14.3 18 16 C13.20770772 18.55588921 8.29299114 18.58248228 3 18 C-0.625 16.5 -0.625 16.5 -3 15 C-2.34 11.7 -1.68 8.4 -1 5 C0.98 5 2.96 5 5 5 C5 4.34 5 3.68 5 3 C3.35 2.67 1.7 2.34 0 2 C0 1.34 0 0.68 0 0 Z " fill="#628771" transform="translate(28,39)"/>
<path d="M0 0 C1.65 0.33 3.3 0.66 5 1 C6.2062252 4.61867559 6.10816918 7.92506251 6.0625 11.6875 C6.05798828 12.38939453 6.05347656 13.09128906 6.04882812 13.81445312 C6.03706927 15.54300538 6.01913454 17.27151365 6 19 C4.88625 19.4125 3.7725 19.825 2.625 20.25 C0.28159389 21.26579095 -0.81186832 21.75200824 -2.375 23.8125 C-3.14884591 26.5209607 -3.61962842 29.21060844 -4 32 C-5.32 31.67 -6.64 31.34 -8 31 C-7.67 30.67 -7.34 30.34 -7 30 C-6.76572222 27.98405418 -6.58663876 25.961526 -6.4375 23.9375 C-6.31181641 22.28041016 -6.31181641 22.28041016 -6.18359375 20.58984375 C-6.12300781 19.73519531 -6.06242187 18.88054688 -6 18 C-6.99 17.67 -7.98 17.34 -9 17 C-9.33 16.01 -9.66 15.02 -10 14 C-4.25 11 -4.25 11 -2 11 C-1.34 7.37 -0.68 3.74 0 0 Z " fill="#119414" transform="translate(63,24)"/>
<path d="M0 0 C-2.3448535 2.70560019 -3.58026259 3.89926302 -7.125 4.75 C-8.07375 5.1625 -9.0225 5.575 -10 6 C-10.77930329 7.99253683 -11.13440319 9.92579565 -11.5234375 12.02734375 C-12.24177512 15.00079045 -13.51878678 16.27693526 -16 18 C-19.25 18.75 -19.25 18.75 -22 19 C-21.9175 20.0725 -21.835 21.145 -21.75 22.25 C-22 26 -22 26 -24 28.4375 C-24.99 29.2109375 -24.99 29.2109375 -26 30 C-25.34538402 19.85345236 -22.92724855 11.76056949 -15.29296875 4.69921875 C-10.81813822 1.38311776 -5.51150783 -1.83716928 0 0 Z " fill="#141815" transform="translate(29,4)"/>
<path d="M0 0 C9.00081611 -0.47303559 16.88750912 -0.29315889 25 4 C25.99 4.99 26.98 5.98 28 7 C24.37 7.33 20.74 7.66 17 8 C17 9.98 17 11.96 17 14 C15.68 14 14.36 14 13 14 C12.67 13.34 12.34 12.68 12 12 C9.97536745 11.34786708 9.97536745 11.34786708 8 11 C7.75 5.375 7.75 5.375 10 2 C6.7 1.67 3.4 1.34 0 1 C0 0.67 0 0.34 0 0 Z " fill="#0C0F0D" transform="translate(29,2)"/>
<path d="M0 0 C2.31 0 4.62 0 7 0 C7 0.66 7 1.32 7 2 C7.99 2.33 8.98 2.66 10 3 C10 6.96 10 10.92 10 15 C9.01 15 8.02 15 7 15 C7 14.01 7 13.02 7 12 C6.34 12 5.68 12 5 12 C4.67 10.35 4.34 8.7 4 7 C4 7.763125 4 8.52625 4 9.3125 C4 11.20833333 4 13.10416667 4 15 C3.34 15 2.68 15 2 15 C2 13.68 2 12.36 2 11 C0.35 11 -1.3 11 -3 11 C-3 11.99 -3 12.98 -3 14 C-3.66 14 -4.32 14 -5 14 C-5 12.68 -5 11.36 -5 10 C-3.35 10 -1.7 10 0 10 C0 8.68 0 7.36 0 6 C-1.65 6.33 -3.3 6.66 -5 7 C-5 5.68 -5 4.36 -5 3 C-4.360625 2.87625 -3.72125 2.7525 -3.0625 2.625 C-2.0415625 2.315625 -2.0415625 2.315625 -1 2 C-0.67 1.34 -0.34 0.68 0 0 Z " fill="#3B7054" transform="translate(44,39)"/>
<path d="M0 0 C0.66 0 1.32 0 2 0 C2.309375 0.804375 2.61875 1.60875 2.9375 2.4375 C3.76335345 4.89080405 3.76335345 4.89080405 5 6 C6.85287502 6.07226502 8.70833878 6.0838122 10.5625 6.0625 C11.57441406 6.05347656 12.58632813 6.04445313 13.62890625 6.03515625 C14.41136719 6.02355469 15.19382812 6.01195312 16 6 C15.125 9.875 15.125 9.875 14 11 C8.8808507 11.26029573 4.7449066 11.19885916 0 9 C-0.33 8.01 -0.66 7.02 -1 6 C-1 10.29 -1 14.58 -1 19 C-2.32 19 -3.64 19 -5 19 C-6.58856103 7.94447394 -6.58856103 7.94447394 -4 4 C-1.875 2.6875 -1.875 2.6875 0 2 C0 1.34 0 0.68 0 0 Z " fill="#374049" transform="translate(26,19)"/>
<path d="M0 0 C1.32 0 2.64 0 4 0 C4 2.97 4 5.94 4 9 C3.34 9 2.68 9 2 9 C2 9.99 2 10.98 2 12 C0.02 12 -1.96 12 -4 12 C-4 12.66 -4 13.32 -4 14 C-5.32 14 -6.64 14 -8 14 C-8.33 13.34 -8.66 12.68 -9 12 C-11.30965848 10.94647157 -13.6429774 9.94280904 -16 9 C-16 6.69 -16 4.38 -16 2 C-15.34 2 -14.68 2 -14 2 C-14 3.65 -14 5.3 -14 7 C-12.68 7 -11.36 7 -10 7 C-9.67 5.68 -9.34 4.36 -9 3 C-9 4.32 -9 5.64 -9 7 C-7.02 7 -5.04 7 -3 7 C-2.67 5.68 -2.34 4.36 -2 3 C-2 4.32 -2 5.64 -2 7 C-0.68 7 0.64 7 2 7 C1.34 4.69 0.68 2.38 0 0 Z " fill="#E3E1DF" transform="translate(42,29)"/>
<path d="M0 0 C0.66 0.66 1.32 1.32 2 2 C3.31747324 2.69748583 4.64914193 3.36959957 6 4 C3.125 8.875 3.125 8.875 2 10 C0.35769636 10.1245486 -1.29052276 10.17568524 -2.9375 10.1875 C-3.83339844 10.20167969 -4.72929688 10.21585938 -5.65234375 10.23046875 C-8 10 -8 10 -10 8 C-10.35571424 5.22542896 -10.36405327 3.62103204 -8.9375 1.1875 C-5.94449731 -0.646921 -3.42183337 -0.31107576 0 0 Z " fill="#78AE23" transform="translate(39,16)"/>
<path d="M0 0 C6.875 0.875 6.875 0.875 8 2 C13.3892484 2.42914385 18.06973985 2.39042916 23 0 C23.99 0 24.98 0 26 0 C26 4 26 4 24.9375 5.75 C21.92542904 7.69327159 19.5126267 7.29768023 16 7 C12.5625 6 12.5625 6 10 5 C10 5.66 10 6.32 10 7 C8.02 7 6.04 7 4 7 C3.34 5.68 2.68 4.36 2 3 C1.34 3 0.68 3 0 3 C0 2.01 0 1.02 0 0 Z " fill="#31332E" transform="translate(23,56)"/>
<path d="M0 0 C3.96 0.33 7.92 0.66 12 1 C12 1.66 12 2.32 12 3 C12.66 3 13.32 3 14 3 C14 2.01 14 1.02 14 0 C15.65 0 17.3 0 19 0 C19 1.65 19 3.3 19 5 C14.20770772 7.55588921 9.29299114 7.58248228 4 7 C0.375 5.5 0.375 5.5 -2 4 C-1.34 2.68 -0.68 1.36 0 0 Z " fill="#CEC845" transform="translate(27,50)"/>
<path d="M0 0 C0.66 0.66 1.32 1.32 2 2 C4.65537372 2.56520003 7.29144713 2.73788198 10 3 C10.33 2.01 10.66 1.02 11 0 C11 1.65 11 3.3 11 5 C7.25764681 7.44989101 3.55774581 7.23086143 -0.75 7.125 C-1.44738281 7.11597656 -2.14476562 7.10695313 -2.86328125 7.09765625 C-4.57566958 7.07419888 -6.28788004 7.03833104 -8 7 C-8 5.68 -8 4.36 -8 3 C-5.36 2.01 -2.72 1.02 0 0 Z " fill="#19550D" transform="translate(37,62)"/>
<path d="M0 0 C0.99 0 1.98 0 3 0 C4.05771739 1.63064764 5.05273046 3.30280873 6 5 C7.58245275 6.75149165 7.58245275 6.75149165 9 8 C8.34 10.31 7.68 12.62 7 15 C4.28775382 13.38731308 1.62647188 11.75098126 -1 10 C-0.67 6.7 -0.34 3.4 0 0 Z " fill="#1A7115" transform="translate(13,50)"/>
<path d="M0 0 C0.99 0 1.98 0 3 0 C3.66 0.99 4.32 1.98 5 3 C8.06556598 3.73343428 8.06556598 3.73343428 11 4 C11 3.34 11 2.68 11 2 C12.65 2 14.3 2 16 2 C14.02579865 4.52259061 13.03254358 4.9929808 9.8125 5.6875 C8.4203125 5.8421875 8.4203125 5.8421875 7 6 C6.67 7.32 6.34 8.64 6 10 C2.5625 8.8125 2.5625 8.8125 -1 7 C-2.0625 4.4375 -2.0625 4.4375 -2 2 C-1.34 1.34 -0.68 0.68 0 0 Z " fill="#050805" transform="translate(22,59)"/>
<path d="M0 0 C0.99 0 1.98 0 3 0 C3.10824843 1.6026782 3.18570645 3.20745748 3.25 4.8125 C3.29640625 5.70582031 3.3428125 6.59914063 3.390625 7.51953125 C3 10 3 10 1.03125 11.5625 C0.3609375 12.036875 -0.309375 12.51125 -1 13 C-1.68850829 15.0316566 -1.68850829 15.0316566 -1.75 17.1875 C-1.8325 18.445625 -1.915 19.70375 -2 21 C-2.33 21 -2.66 21 -3 21 C-3.27794711 18.62536492 -3.52273673 16.2545801 -3.75 13.875 C-3.83121094 13.20984375 -3.91242187 12.5446875 -3.99609375 11.859375 C-4.3371867 7.99365485 -3.99380204 5.9879544 -2.203125 2.5078125 C-1.47609375 1.68023438 -0.7490625 0.85265625 0 0 Z " fill="#101A11" transform="translate(18,29)"/>
<path d="M0 0 C2.625 1.9375 2.625 1.9375 5 4 C7.18214568 4.77833534 7.18214568 4.77833534 9 5 C9 5.99 9 6.98 9 8 C9.99 8 10.98 8 12 8 C12 9.65 12 11.3 12 13 C9.69 13 7.38 13 5 13 C5.66 11.02 6.32 9.04 7 7 C3.04476345 4.24331998 -0.22423661 3.4682121 -5 3 C-5.33 3.99 -5.66 4.98 -6 6 C-6.66 6 -7.32 6 -8 6 C-8.33 7.32 -8.66 8.64 -9 10 C-9 8.68 -9 7.36 -9 6 C-9.66 5.67 -10.32 5.34 -11 5 C-10.34 5 -9.68 5 -9 5 C-9 4.34 -9 3.68 -9 3 C-6.54020423 -0.55303834 -4.11549342 -0.57616908 0 0 Z " fill="#416028" transform="translate(37,13)"/>
<path d="M0 0 C0.66386719 0.08378906 1.32773437 0.16757812 2.01171875 0.25390625 C8.54720848 1.05425042 8.54720848 1.05425042 15 0 C15 1.32 15 2.64 15 4 C13.35 4 11.7 4 10 4 C10 4.66 10 5.32 10 6 C8.02 6.33 6.04 6.66 4 7 C4 6.01 4 5.02 4 4 C3.34 4 2.68 4 2 4 C1.34 2.68 0.68 1.36 0 0 Z " fill="#44C76E" transform="translate(29,45)"/>
<path d="M0 0 C1.98 0.99 1.98 0.99 4 2 C3.67 3.32 3.34 4.64 3 6 C3.99 6 4.98 6 6 6 C6 6.99 6 7.98 6 9 C6.66 9.33 7.32 9.66 8 10 C7.34 10.66 6.68 11.32 6 12 C5.01 11.34 4.02 10.68 3 10 C3 10.66 3 11.32 3 12 C2.01 11.67 1.02 11.34 0 11 C0 7.37 0 3.74 0 0 Z " fill="#455688" transform="translate(18,42)"/>
<path d="M0 0 C1.07765625 0.00902344 2.1553125 0.01804687 3.265625 0.02734375 C4.08546875 0.03894531 4.9053125 0.05054687 5.75 0.0625 C4.875 3.9375 4.875 3.9375 3.75 5.0625 C-1.4779653 5.32832874 -5.32117148 5.03403141 -10.25 3.0625 C-10.25 2.4025 -10.25 1.7425 -10.25 1.0625 C-6.78777385 -0.00473961 -3.60960734 -0.03923486 0 0 Z " fill="#4C4C6E" transform="translate(36.25,24.9375)"/>
<path d="M0 0 C0.99 0.33 1.98 0.66 3 1 C3 4.96 3 8.92 3 13 C2.01 13 1.02 13 0 13 C0 12.01 0 11.02 0 10 C-0.66 10 -1.32 10 -2 10 C-2 7.69 -2 5.38 -2 3 C-1.34 3 -0.68 3 0 3 C0 2.01 0 1.02 0 0 Z " fill="#46549E" transform="translate(51,41)"/>
<path d="M0 0 C2.3431213 0.25561323 4.67843403 0.59270772 7 1 C7.33 1.66 7.66 2.32 8 3 C10.02463255 3.65213292 10.02463255 3.65213292 12 4 C12 4.66 12 5.32 12 6 C10.02 6 8.04 6 6 6 C6 8.31 6 10.62 6 13 C5.67 13 5.34 13 5 13 C5 10.36 5 7.72 5 5 C3.02 4.34 1.04 3.68 -1 3 C-0.67 2.01 -0.34 1.02 0 0 Z " fill="#3C7657" transform="translate(21,38)"/>
<path d="M0 0 C0.66 0 1.32 0 2 0 C2 0.99 2 1.98 2 3 C3.4800841 2.88637738 4.95910074 2.75877092 6.4375 2.625 C7.67306641 2.52058594 7.67306641 2.52058594 8.93359375 2.4140625 C9.95646484 2.20910156 9.95646484 2.20910156 11 2 C11.33 1.34 11.66 0.68 12 0 C12.99 0.33 13.98 0.66 15 1 C13.125 4.875 13.125 4.875 12 6 C10.35769636 6.1245486 8.70947724 6.17568524 7.0625 6.1875 C6.16660156 6.20167969 5.27070312 6.21585938 4.34765625 6.23046875 C2 6 2 6 0 4 C0 2.68 0 1.36 0 0 Z " fill="#BD7F12" transform="translate(29,20)"/>
<path d="M0 0 C2.97 0.495 2.97 0.495 6 1 C6 2.32 6 3.64 6 5 C8.64 5.33 11.28 5.66 14 6 C14 6.33 14 6.66 14 7 C7.86946489 7.32712342 3.37330889 7.39366878 -2 4 C-1.34 2.68 -0.68 1.36 0 0 Z " fill="#7D994E" transform="translate(27,50)"/>
<path d="M0 0 C0.99 0 1.98 0 3 0 C3 3.96 3 7.92 3 12 C4.32 12.33 5.64 12.66 7 13 C8.44207941 15.88415883 8.09394887 18.41721528 8.0625 21.625 C8.05347656 22.81351563 8.04445313 24.00203125 8.03515625 25.2265625 C8.02355469 26.14179687 8.01195312 27.05703125 8 28 C7.67 28 7.34 28 7 28 C6.95101562 27.14535156 6.90203125 26.29070313 6.8515625 25.41015625 C6.77679688 24.30542969 6.70203125 23.20070313 6.625 22.0625 C6.52058594 20.40927734 6.52058594 20.40927734 6.4140625 18.72265625 C6.27742188 17.82417969 6.14078125 16.92570312 6 16 C5.34 15.67 4.68 15.34 4 15 C4 14.34 4 13.68 4 13 C2.68 13 1.36 13 0 13 C0 12.01 0 11.02 0 10 C0.66 10 1.32 10 2 10 C1.54177532 6.53058454 1.10868317 3.32604951 0 0 Z " fill="#2F3E41" transform="translate(47,26)"/>
<path d="M0 0 C0 3 0 3 -2 6 C-2.30723267 8.1482619 -2.30723267 8.1482619 -2.375 10.4375 C-2.67056983 13.86164864 -2.82580173 14.78357184 -5.0625 17.5625 C-5.701875 18.036875 -6.34125 18.51125 -7 19 C-6.6646931 11.75737096 -5.27686552 5.27686552 0 0 Z " fill="#1C241C" transform="translate(10,15)"/>
<path d="M0 0 C0.66 0 1.32 0 2 0 C2 1.65 2 3.3 2 5 C3.32 5 4.64 5 6 5 C6.33 3.68 6.66 2.36 7 1 C7.33 3.64 7.66 6.28 8 9 C4.28400809 9.20086443 3.22791555 9.1519437 0 7 C-0.1875 3.375 -0.1875 3.375 0 0 Z " fill="#E4E4E3" transform="translate(26,31)"/>
<path d="M0 0 C2.375 -0.1875 2.375 -0.1875 5 0 C7.4294516 3.6441774 7.16179575 5.71241272 7 10 C6.34 10 5.68 10 5 10 C5 10.99 5 11.98 5 13 C4.01 12.67 3.02 12.34 2 12 C2.66 12 3.32 12 4 12 C4 8.7 4 5.4 4 2 C2.68 2 1.36 2 0 2 C0 1.34 0 0.68 0 0 Z " fill="#5D67A0" transform="translate(42,26)"/>
<path d="M0 0 C0 1.32 0 2.64 0 4 C-3.22791555 6.1519437 -4.28400809 6.20086443 -8 6 C-7.67 4.35 -7.34 2.7 -7 1 C-4.50935112 0.31292445 -2.62113708 0 0 0 Z " fill="#77311F" transform="translate(49,56)"/>
<path d="M0 0 C0.99 0.495 0.99 0.495 2 1 C2 1.99 2 2.98 2 4 C3.65 4 5.3 4 7 4 C6.01 4.33 5.02 4.66 4 5 C4 5.66 4 6.32 4 7 C3.34 7 2.68 7 2 7 C2 9.31 2 11.62 2 14 C2.66 14.33 3.32 14.66 4 15 C3.01 15 2.02 15 1 15 C-0.00109515 11.68929162 -0.10356134 8.69915231 -0.0625 5.25 C-0.05347656 4.26515625 -0.04445313 3.2803125 -0.03515625 2.265625 C-0.02355469 1.51796875 -0.01195313 0.7703125 0 0 Z " fill="#6875BD" transform="translate(24,24)"/>
<path d="M0 0 C2.31 0.33 4.62 0.66 7 1 C7.33 2.65 7.66 4.3 8 6 C6.35 6 4.7 6 3 6 C2.67 5.01 2.34 4.02 2 3 C1.34 3 0.68 3 0 3 C0 2.01 0 1.02 0 0 Z " fill="#7B3321" transform="translate(23,56)"/>
<path d="M0 0 C2.31 0.66 4.62 1.32 7 2 C7 4.64 7 7.28 7 10 C6.34 10 5.68 10 5 10 C5 9.01 5 8.02 5 7 C4.01 7 3.02 7 2 7 C1.7834375 5.824375 1.7834375 5.824375 1.5625 4.625 C1.12201075 2.03578982 1.12201075 2.03578982 0 0 Z " fill="#3C4D67" transform="translate(19,41)"/>
<path d="M0 0 C2 0 2 0 3.625 1 C5.82559052 4.20085893 5.18792122 7.17893517 5 11 C5.66 11.33 6.32 11.66 7 12 C6.67 13.98 6.34 15.96 6 18 C4.68 17.67 3.36 17.34 2 17 C2.33 16.67 2.66 16.34 3 16 C3.23427778 13.98405418 3.41336124 11.961526 3.5625 9.9375 C3.68818359 8.28041016 3.68818359 8.28041016 3.81640625 6.58984375 C3.87699219 5.73519531 3.93757813 4.88054688 4 4 C3.01 3.67 2.02 3.34 1 3 C0.67 2.01 0.34 1.02 0 0 Z " fill="#147111" transform="translate(53,38)"/>
<path d="M0 0 C1.32 0 2.64 0 4 0 C4 2.97 4 5.94 4 9 C3.34 9 2.68 9 2 9 C2 9.99 2 10.98 2 12 C0.35 12 -1.3 12 -3 12 C-1.68 11.67 -0.36 11.34 1 11 C1 10.01 1 9.02 1 8 C0.34 7.67 -0.32 7.34 -1 7 C-0.01 7 0.98 7 2 7 C1.34 4.69 0.68 2.38 0 0 Z " fill="#C6C7CC" transform="translate(42,29)"/>
<path d="M0 0 C0.66 0 1.32 0 2 0 C2.66 0.99 3.32 1.98 4 3 C7.06556598 3.73343428 7.06556598 3.73343428 10 4 C10 3.34 10 2.68 10 2 C11.65 2 13.3 2 15 2 C13.3706331 3.97239152 12.15148204 4.94109032 9.75 5.875 C5.85076831 6.0522378 3.48926679 4.7104249 0 3 C0 2.01 0 1.02 0 0 Z " fill="#181814" transform="translate(23,59)"/>
<path d="M0 0 C1.5625 1.8125 1.5625 1.8125 3 4 C2.67 4.99 2.34 5.98 2 7 C2.66 7 3.32 7 4 7 C4 7.99 4 8.98 4 10 C4.99 10.33 5.98 10.66 7 11 C4.36 11.33 1.72 11.66 -1 12 C-1 10 -1 10 1 8 C0.67 7.67 0.34 7.34 0 7 C-0.04092937 4.66702567 -0.04241723 2.33294775 0 0 Z " fill="#2F393F" transform="translate(47,44)"/>
<path d="M0 0 C1.65 0 3.3 0 5 0 C5 1.65 5 3.3 5 5 C3.35 5.33 1.7 5.66 0 6 C0 5.34 0 4.68 0 4 C-0.66 3.67 -1.32 3.34 -2 3 C-1.34 3 -0.68 3 0 3 C0 2.01 0 1.02 0 0 Z " fill="#8EA84F" transform="translate(41,50)"/>
<path d="M0 0 C2.1875 0.3125 2.1875 0.3125 4 1 C3.01 1.33 2.02 1.66 1 2 C1 2.99 1 3.98 1 5 C1.99 5 2.98 5 4 5 C4 5.66 4 6.32 4 7 C2.35 7 0.7 7 -1 7 C-1 6.01 -1 5.02 -1 4 C-1.66 3.67 -2.32 3.34 -3 3 C-1.75 1.4375 -1.75 1.4375 0 0 Z " fill="#60921C" transform="translate(32,16)"/>
<path d="M0 0 C0 0.66 0 1.32 0 2 C1.32 2 2.64 2 4 2 C4 2.66 4 3.32 4 4 C-0.875 3.125 -0.875 3.125 -2 2 C-3.34747084 1.76924918 -4.70377565 1.58846937 -6.0625 1.4375 C-7.361875 1.293125 -8.66125 1.14875 -10 1 C-10 0.67 -10 0.34 -10 0 C-6.30458414 -0.95024979 -3.69541586 -0.95024979 0 0 Z " fill="#2C3029" transform="translate(42,14)"/>
<path d="M0 0 C0.66 0 1.32 0 2 0 C2.33 1.65 2.66 3.3 3 5 C5.97 5 8.94 5 12 5 C12 5.33 12 5.66 12 6 C10.37536158 6.05395478 8.75021459 6.09277195 7.125 6.125 C6.22007813 6.14820313 5.31515625 6.17140625 4.3828125 6.1953125 C2 6 2 6 0 4 C0 2.68 0 1.36 0 0 Z " fill="#A96B18" transform="translate(29,20)"/>
<path d="M0 0 C1.875 0.75 1.875 0.75 2.875 2.75 C1.555 2.75 0.235 2.75 -1.125 2.75 C-1.455 3.41 -1.785 4.07 -2.125 4.75 C-3.115 4.75 -4.105 4.75 -5.125 4.75 C-5.125 3.76 -5.125 2.77 -5.125 1.75 C-2.125 -0.25 -2.125 -0.25 0 0 Z " fill="#6DA824" transform="translate(38.125,16.25)"/>
<path d="M0 0 C0.66 0 1.32 0 2 0 C2 1.65 2 3.3 2 5 C2.99 5.33 3.98 5.66 5 6 C4.34 6 3.68 6 3 6 C2.67 6.66 2.34 7.32 2 8 C1.34 7.67 0.68 7.34 0 7 C0 4.69 0 2.38 0 0 Z " fill="#C6C8D1" transform="translate(26,31)"/>
<path d="M0 0 C0.33 0.99 0.66 1.98 1 3 C2.65 3 4.3 3 6 3 C6 3.33 6 3.66 6 4 C1.45194365 4.17835515 -1.8794254 3.99785435 -6 2 C-6 1.67 -6 1.34 -6 1 C-4.02 0.67 -2.04 0.34 0 0 Z " fill="#2D2825" transform="translate(40,59)"/>
<path d="M0 0 C1.98 0 3.96 0 6 0 C6 0.99 6 1.98 6 3 C4.02 3 2.04 3 0 3 C0 2.01 0 1.02 0 0 Z " fill="#E4AF5E" transform="translate(33,36)"/>
<path d="M0 0 C1.32 0 2.64 0 4 0 C4 1.32 4 2.64 4 4 C2.35 3.67 0.7 3.34 -1 3 C-0.67 2.01 -0.34 1.02 0 0 Z " fill="#9EB351" transform="translate(27,50)"/>
<path d="M0 0 C0.33 0.99 0.66 1.98 1 3 C1.99 3 2.98 3 4 3 C4 3.66 4 4.32 4 5 C3.34 5 2.68 5 2 5 C2 5.99 2 6.98 2 8 C1.34 8 0.68 8 0 8 C0 5.36 0 2.72 0 0 Z " fill="#5666C5" transform="translate(19,46)"/>
<path d="M0 0 C1.32 0.33 2.64 0.66 4 1 C4 1.66 4 2.32 4 3 C4.66 3 5.32 3 6 3 C6 3.66 6 4.32 6 5 C3.03 4.505 3.03 4.505 0 4 C0 2.68 0 1.36 0 0 Z " fill="#3C946A" transform="translate(27,46)"/>
<path d="M0 0 C0.66 0 1.32 0 2 0 C2 2.31 2 4.62 2 7 C1.34 7 0.68 7 0 7 C0 6.01 0 5.02 0 4 C-0.66 3.67 -1.32 3.34 -2 3 C-1.34 2.01 -0.68 1.02 0 0 Z " fill="#313F3B" transform="translate(24,44)"/>
<path d="M0 0 C1.32 0 2.64 0 4 0 C4 0.99 4 1.98 4 3 C2.02 3.33 0.04 3.66 -2 4 C-2 3.34 -2 2.68 -2 2 C-1.34 2 -0.68 2 0 2 C0 1.34 0 0.68 0 0 Z " fill="#398E60" transform="translate(47,39)"/>
<path d="M0 0 C1.9375 1.125 1.9375 1.125 4 3 C4.75 6.1875 4.75 6.1875 5 9 C1.7457985 6.16569547 0.4793247 4.31392226 0 0 Z " fill="#0E120F" transform="translate(61,13)"/>
</svg>
